# xmcd
#
# Track frame offsets:
#	150
#	19075
#	39976
#	54176
#	67568
#	81507
#	98117
#	111195
#	120108
#	134444
#	158891
#
# Disc length: 2315 seconds
#
# Revision: 2
# Processed by: cddbd v1.5.2PL0 Copyright (c) Steve Scherf et al.
# Submitted via: audiograbber 1.83.01
#
DISCID=7d09090b
DTITLE=Gashouse Dave - GASHOUSE DAVE - Way Too Cool
DYEAR=2002
DGENRE=Blues
TTITLE0=Girl In A Cotton Dress
TTITLE1=The New Cuba
TTITLE2=Shut Thy Mouth
TTITLE3=Way To Cool
TTITLE4=Snakeoil Blues
TTITLE5=Moulin Blues
TTITLE6=Retropocket
TTITLE7=Oriental Vapors
TTITLE8=Le Blonde Bomb
TTITLE9=Eternity
TTITLE10=Service Me Rag
EXTD=
EXTT0=
EXTT1=
EXTT2=
EXTT3=
EXTT4=
EXTT5=
EXTT6=
EXTT7=
EXTT8=
EXTT9=
EXTT10=
PLAYORDER=
